<svg xmlns="http://www.w3.org/2000/svg" viewBox="0 0 512 512">
  <defs>
    <radialGradient id="bgGrad" cx="50%" cy="50%" r="50%">
      <stop offset="0%" stop-color="#1e3a5f"/>
      <stop offset="100%" stop-color="#0f172a"/>
    </radialGradient>
    <radialGradient id="plateGrad" cx="50%" cy="40%" r="60%">
      <stop offset="0%" stop-color="#ffffff"/>
      <stop offset="100%" stop-color="#cbd5e1"/>
    </radialGradient>
    <radialGradient id="dropGrad" cx="35%" cy="30%" r="60%">
      <stop offset="0%" stop-color="#7dd3fc"/>
      <stop offset="100%" stop-color="#0284c7"/>
    </radialGradient>
    <filter id="shadow">
      <feDropShadow dx="2" dy="4" stdDeviation="6" flood-color="#000" flood-opacity="0.4"/>
    </filter>
  </defs>
  <rect width="512" height="512" fill="url(#bgGrad)"/>
  <ellipse cx="256" cy="265" rx="130" ry="130" fill="url(#plateGrad)" filter="url(#shadow)"/>
  <ellipse cx="256" cy="265" rx="130" ry="130" fill="none" stroke="#e2e8f0" stroke-width="6"/>
  <ellipse cx="256" cy="265" rx="95" ry="95" fill="none" stroke="#e2e8f0" stroke-width="3" opacity="0.5"/>
  <g fill="#94a3b8" filter="url(#shadow)">
    <rect x="147" y="290" width="14" height="90" rx="7"/>
    <rect x="147" y="230" width="14" height="65" rx="4"/>
    <rect x="141" y="150" width="5" height="70" rx="2.5"/>
    <rect x="150" y="150" width="5" height="70" rx="2.5"/>
    <rect x="159" y="150" width="5" height="70" rx="2.5"/>
    <rect x="168" y="150" width="5" height="70" rx="2.5"/>
  </g>
  <g filter="url(#shadow)">
    <path d="M318 340 Q295 310 295 288 Q295 262 318 262 Q341 262 341 288 Q341 310 318 340Z" fill="url(#dropGrad)"/>
    <ellipse cx="309" cy="280" rx="6" ry="9" fill="white" opacity="0.4" transform="rotate(-20 309 280)"/>
  </g>
</svg>
